<?xml version="1.0" encoding="UTF-8" standalone="no"?>
<!DOCTYPE svg PUBLIC "-//W3C//DTD SVG 1.1//EN" "http://www.w3.org/Graphics/SVG/1.1/DTD/svg11.dtd">
<svg width="100%" height="100%" viewBox="0 0 780 780" version="1.1" xmlns="http://www.w3.org/2000/svg" xmlns:xlink="http://www.w3.org/1999/xlink" xml:space="preserve" xmlns:serif="http://www.serif.com/" style="fill-rule:evenodd;clip-rule:evenodd;stroke-linejoin:round;stroke-miterlimit:2;">
    <g transform="matrix(1,0,0,1,-1421.7,-1693.66)">
        <g transform="matrix(0.989446,0,0,1.06982,15.005,1109.64)">
            <path d="M2210.02,728.18L2210.02,1092.73C2210.02,1193.33 2121.71,1275 2012.94,1275L1618.78,1275C1510.01,1275 1421.7,1193.33 1421.7,1092.73L1421.7,728.18C1421.7,627.581 1510.01,545.907 1618.78,545.907L2012.94,545.907C2121.71,545.907 2210.02,627.581 2210.02,728.18Z"/>
        </g>
        <g transform="matrix(1.2381,0,0,1.2381,22.9615,334.295)">
            <g transform="matrix(300,0,0,300,1167.09,1502.1)">
                <path d="M0.02,0.12L0.35,-0.705L0.512,-0.705L0.182,0.12L0.02,0.12Z" style="fill:rgb(212,184,74);fill-rule:nonzero;"/>
            </g>
            <g transform="matrix(300,0,0,300,1326.69,1502.1)">
            </g>
        </g>
        <g transform="matrix(1.2381,0,0,1.2381,1109.8,1166.46)">
            <g transform="matrix(300,0,0,300,401.059,859.265)">
                <path d="M0.011,-0L0.263,-0.745L0.469,-0.745L0.721,-0L0.552,-0L0.502,-0.152L0.229,-0.152L0.179,-0L0.011,-0ZM0.272,-0.287L0.459,-0.287L0.345,-0.639L0.387,-0.639L0.272,-0.287Z" style="fill:rgb(250,249,249);fill-rule:nonzero;"/>
            </g>
            <g transform="matrix(300,0,0,300,611.659,859.265)">
                <path d="M0.42,0.012C0.367,0.012 0.317,0.002 0.272,-0.017C0.226,-0.036 0.186,-0.063 0.152,-0.098C0.118,-0.133 0.092,-0.173 0.073,-0.22C0.053,-0.267 0.044,-0.318 0.044,-0.373C0.044,-0.428 0.053,-0.48 0.072,-0.527C0.091,-0.574 0.117,-0.614 0.151,-0.649C0.185,-0.683 0.225,-0.71 0.271,-0.729C0.316,-0.748 0.366,-0.757 0.42,-0.757C0.474,-0.757 0.523,-0.748 0.566,-0.73C0.608,-0.712 0.645,-0.688 0.675,-0.658C0.705,-0.628 0.726,-0.595 0.739,-0.558L0.602,-0.492C0.589,-0.528 0.567,-0.558 0.536,-0.582C0.504,-0.605 0.465,-0.617 0.42,-0.617C0.376,-0.617 0.337,-0.607 0.304,-0.586C0.271,-0.565 0.245,-0.537 0.227,-0.501C0.208,-0.464 0.199,-0.422 0.199,-0.373C0.199,-0.324 0.208,-0.282 0.227,-0.245C0.245,-0.208 0.271,-0.18 0.304,-0.159C0.337,-0.138 0.376,-0.128 0.42,-0.128C0.465,-0.128 0.504,-0.14 0.536,-0.164C0.567,-0.187 0.589,-0.217 0.602,-0.253L0.739,-0.187C0.726,-0.15 0.705,-0.117 0.675,-0.087C0.645,-0.057 0.608,-0.033 0.566,-0.015C0.523,0.003 0.474,0.012 0.42,0.012Z" style="fill:rgb(250,249,249);fill-rule:nonzero;"/>
            </g>
            <g transform="matrix(300,0,0,300,843.259,859.265)">
            </g>
        </g>
        <g transform="matrix(0.988116,0,0,1.00789,1185.4,357.294)">
            <path d="M1028.53,1519.38L1028.53,1906.33C1028.53,2013.11 940.099,2099.8 831.181,2099.8L436.491,2099.8C327.573,2099.8 239.145,2013.11 239.145,1906.33L239.145,1519.38C239.145,1412.6 327.573,1325.91 436.491,1325.91L831.181,1325.91C940.099,1325.91 1028.53,1412.6 1028.53,1519.38ZM1007.44,1519.38C1007.44,1424.01 928.463,1346.58 831.181,1346.58L436.491,1346.58C339.209,1346.58 260.229,1424.01 260.229,1519.38L260.229,1906.33C260.229,2001.7 339.209,2079.13 436.491,2079.13L831.181,2079.13C928.463,2079.13 1007.44,2001.7 1007.44,1906.33L1007.44,1519.38Z" style="fill:rgb(212,184,74);"/>
        </g>
    </g>
</svg>
